HIERARCHY
ROOT root
{
	OFFSET 0.000000 0.000000 0.000000
	CHANNELS 6 Xposition Yposition Zposition Zrotation Yrotation Xrotation
	JOINT lhip
	{
		OFFSET 0.058581 -0.082280 -0.017664
		CHANNELS 3 Zrotation Yrotation Xrotation
		JOINT lknee
		{
			OFFSET 0.043451 -0.386469 0.008037
			CHANNELS 3 Zrotation Yrotation Xrotation
			JOINT lankle
			{
				OFFSET -0.014790 -0.426874 -0.037428
				CHANNELS 3 Zrotation Yrotation Xrotation
				JOINT ltoe
				{
					OFFSET 0.041054 -0.060286 0.122042
					CHANNELS 3 Zrotation Yrotation Xrotation
					End Site
					{
						OFFSET 0.000000 0.000000 0.000000
					}
				}
			}
		}
	}
	JOINT rhip
	{
		OFFSET -0.060310 -0.090513 -0.013543
		CHANNELS 3 Zrotation Yrotation Xrotation
		JOINT rknee
		{
			OFFSET -0.043257 -0.383688 -0.004843
			CHANNELS 3 Zrotation Yrotation Xrotation
			JOINT rankle
			{
				OFFSET 0.019056 -0.420046 -0.034562
				CHANNELS 3 Zrotation Yrotation Xrotation
				JOINT rtoe
				{
					OFFSET -0.034840 -0.062106 0.130323
					CHANNELS 3 Zrotation Yrotation Xrotation
					End Site
					{
						OFFSET 0.000000 0.000000 0.000000
					}
				}
			}
		}
	}
	JOINT lowerback
	{
		OFFSET 0.004439 0.124404 -0.038385
		CHANNELS 3 Zrotation Yrotation Xrotation
		JOINT upperback
		{
			OFFSET 0.004488 0.137956 0.026820
			CHANNELS 3 Zrotation Yrotation Xrotation
			JOINT chest
			{
				OFFSET -0.002265 0.056032 0.002855
				CHANNELS 3 Zrotation Yrotation Xrotation
				JOINT lowerneck
				{
					OFFSET -0.013390 0.211636 -0.033468
					CHANNELS 3 Zrotation Yrotation Xrotation
					JOINT upperneck
					{
						OFFSET 0.010113 0.088937 0.050410
						CHANNELS 3 Zrotation Yrotation Xrotation
						End Site
						{
							OFFSET 0.000000 0.000000 0.000000
						}
					}
				}
				JOINT lclavicle
				{
					OFFSET 0.071702 0.114000 -0.018898
					CHANNELS 3 Zrotation Yrotation Xrotation
					JOINT lshoulder
					{
						OFFSET 0.122921 0.045205 -0.019046
						CHANNELS 3 Zrotation Yrotation Xrotation
						JOINT lelbow
						{
							OFFSET 0.255332 -0.015649 -0.022946
							CHANNELS 3 Zrotation Yrotation Xrotation
							JOINT lwrist
							{
								OFFSET 0.265709 0.012698 -0.007375
								CHANNELS 3 Zrotation Yrotation Xrotation
								End Site
								{
									OFFSET 0.000000 0.000000 0.000000
								}
							}
						}
					}
				}
				JOINT rclavicle
				{
					OFFSET -0.082954 0.112472 -0.023707
					CHANNELS 3 Zrotation Yrotation Xrotation
					JOINT rshoulder
					{
						OFFSET -0.113228 0.046853 -0.008472
						CHANNELS 3 Zrotation Yrotation Xrotation
						JOINT relbow
						{
							OFFSET -0.260127 -0.014369 -0.031269
							CHANNELS 3 Zrotation Yrotation Xrotation
							JOINT rwrist
							{
								OFFSET -0.269108 0.006794 -0.006027
								CHANNELS 3 Zrotation Yrotation Xrotation
								End Site
								{
									OFFSET 0.000000 0.000000 0.000000
								}
							}
						}
					}
				}
			}
		}
	}
}
MOTION
Frames: 11
Frame Time: 0.033333
2.293335 0.608062 0.986970 -103.229723 1.380834 83.695322 1.063424 4.459850 8.138440 0.242900 -14.174910 1.220330 1.965849 16.196904 -14.476178 0.000000 -0.000000 0.000000 -0.235202 -2.283246 3.392373 -3.651001 12.092625 1.367250 3.241745 -14.555630 -9.092964 0.000000 -0.000000 0.000000 -4.786918 -0.623229 3.142751 3.177559 -9.298944 0.777275 2.582374 -2.212276 -6.439813 1.979455 -7.869033 -3.889127 14.168640 4.849919 20.346042 -6.632186 -30.362965 0.623103 -8.756519 -28.679439 -6.840867 10.853350 -15.941214 -1.729373 -2.539162 -1.434044 6.227586 3.734880 29.244217 -2.638977 6.848806 40.849109 -11.983616 -3.786542 15.342264 0.609876 -3.204901 0.229907 15.442409 
2.293717 0.608225 0.986272 -103.630170 1.355809 83.577933 0.567115 3.465959 8.679116 0.578890 -14.086886 0.274417 1.755584 17.315967 -14.028060 0.000000 -0.000000 0.000000 -0.620279 -2.312239 3.363751 -3.363368 11.827864 1.270551 3.960432 -14.087489 -8.700526 0.000000 -0.000000 0.000000 -6.217293 -0.822799 1.657624 4.148491 -8.977032 1.964018 2.772673 -0.330166 -6.868082 2.050803 -6.770246 -3.113779 13.830858 1.517230 18.838445 -4.213934 -28.780584 -3.308783 -7.503188 -35.652150 -9.040687 -1.737816 -8.143307 -3.041278 -3.130846 -2.245443 11.168430 6.863818 29.057821 -1.834372 4.592004 40.396978 -12.880933 -2.677330 13.229572 -1.262627 0.034039 1.812886 17.948359 
2.293961 0.607858 0.985814 -104.337337 1.386408 83.230481 0.333420 3.195446 9.902730 1.071520 -13.958912 -1.299525 2.093731 18.047156 -13.341095 0.000000 -0.000000 0.000000 -0.790854 -2.388104 3.554228 -3.165776 12.203351 1.289979 3.753960 -13.846707 -8.678723 0.000000 -0.000000 0.000000 -6.197815 -0.489849 1.364364 4.035489 -8.881853 2.802148 2.696456 -0.398577 -7.797632 1.651733 -7.149529 -4.231792 13.624508 1.480614 18.748899 -5.242409 -29.321130 -3.038987 -7.674345 -35.411961 -8.528338 -1.092891 -7.672359 -3.334717 -3.991776 -2.251235 11.076973 7.968672 29.476553 -1.832918 5.530265 40.465189 -11.979382 -3.703136 12.705325 -1.476677 0.843153 1.092736 18.547401 
2.294007 0.607110 0.985775 -105.033048 1.537020 82.962913 0.361036 3.407457 10.416739 1.234568 -13.580046 -1.676514 2.007381 17.884403 -13.022637 0.000000 -0.000000 0.000000 -0.789609 -2.259853 3.739260 -3.035847 12.262334 1.234249 3.745650 -13.506882 -8.637243 0.000000 -0.000000 0.000000 -5.897918 -0.410844 1.288070 3.678984 -8.831693 3.010110 2.478552 -0.380109 -8.531698 1.450201 -7.178611 -5.899237 13.378958 1.169700 18.691247 -6.052248 -29.647178 -2.757674 -8.029662 -35.367033 -8.344217 -0.304504 -7.595570 -3.957654 -4.622850 -2.183639 12.840103 9.175441 30.242567 -0.540644 4.737584 40.377987 -13.158845 -3.031766 12.569771 -2.409674 1.776454 1.384697 20.170640 
2.294120 0.606413 0.985958 -105.293860 1.714148 83.022236 0.366017 3.339656 10.449931 1.380625 -13.474752 -1.889284 2.027445 17.944764 -12.674507 0.000000 -0.000000 0.000000 -0.599727 -2.113544 3.746268 -3.122318 12.352369 0.922727 3.735912 -13.505301 -8.157737 0.000000 -0.000000 0.000000 -6.282299 -0.205521 1.947592 4.059813 -7.624008 1.857301 2.926775 -1.234936 -8.751809 1.476191 -7.710348 -7.502862 12.876144 0.857603 19.018336 -6.275527 -29.946152 -2.989543 -9.565339 -36.166621 -7.419051 0.321936 -7.207005 -3.495738 -5.146722 -2.344220 11.783402 8.823882 29.557269 -1.622571 6.662768 40.515434 -11.164085 -3.158254 13.016674 -1.713343 1.976845 1.106762 19.364869 
2.294866 0.605849 0.986164 -105.630130 1.821674 83.067263 0.430019 3.346298 10.350994 1.376529 -12.799682 -1.856970 2.087620 17.576833 -12.520482 0.000000 -0.000000 0.000000 -0.483170 -2.030255 3.533213 -3.131735 12.354452 0.969500 3.718593 -13.291262 -7.876727 0.000000 -0.000000 0.000000 -6.034282 -0.431589 2.303347 3.794818 -7.998799 1.467732 2.591425 -1.058335 -9.232840 1.714928 -7.268670 -9.651092 12.393338 0.402211 19.100562 -5.815520 -29.411607 -3.489118 -10.793201 -36.776834 -6.532553 1.007463 -7.089770 -3.647159 -5.951616 -1.845108 12.804100 9.215644 29.586251 -1.297081 7.675220 41.537125 -10.705613 -3.636924 12.912338 -2.274609 2.649489 0.483094 19.480923 
2.295501 0.604765 0.986471 -105.966279 1.986830 83.299314 0.416957 3.235029 10.031493 1.422514 -12.393208 -1.853984 2.114225 17.616155 -12.177747 0.000000 -0.000000 0.000000 -0.346200 -1.827219 3.214479 -3.051937 12.592226 0.805245 3.478616 -13.304781 -7.427307 0.000000 -0.000000 0.000000 -6.184880 0.057056 2.858867 3.854425 -7.323640 0.153285 2.940822 -1.993994 -9.174256 1.369937 -7.787623 -11.653474 12.133474 0.366787 18.732424 -6.358482 -30.061619 -3.358425 -11.627125 -36.827117 -5.830570 1.800959 -6.955004 -3.467984 -5.627376 -2.300713 12.337536 9.139118 29.385304 -1.795469 8.659691 41.388414 -9.964579 -3.373516 13.579029 -1.884977 2.365107 0.698226 19.037292 
2.296276 0.603916 0.986888 -106.405178 2.136598 83.186846 0.444050 3.270392 10.144294 1.524822 -12.141143 -1.971709 2.128999 17.635785 -11.915435 0.000000 -0.000000 0.000000 -0.176176 -1.620300 3.263620 -3.043586 12.814870 0.591807 3.320559 -13.333421 -7.183467 0.000000 -0.000000 0.000000 -6.303379 0.191706 3.411200 3.853613 -7.113949 -0.139718 3.088593 -2.354735 -9.397663 1.541135 -7.523142 -13.970177 11.564252 0.354758 18.327786 -6.214527 -30.227668 -3.414370 -12.319433 -36.669150 -5.738224 2.699260 -6.932936 -3.753804 -6.261330 -1.921650 12.928755 9.332550 29.535913 -1.584556 8.866330 41.547755 -10.094098 -3.641668 13.593459 -2.214642 2.849135 0.381806 19.021770 
2.296916 0.603047 0.987352 -107.034687 2.306772 83.331372 0.553276 3.427300 9.755786 1.417594 -11.503258 -1.614812 1.838116 17.418905 -11.824902 0.000000 -0.000000 0.000000 0.122522 -1.321310 2.891754 -3.210352 12.940584 0.613786 3.298648 -13.164786 -6.916317 0.000000 -0.000000 0.000000 -6.325173 0.337165 3.813626 3.894376 -6.809848 -0.716038 3.258638 -2.690611 -9.604556 1.496111 -7.198838 -15.228362 11.133052 0.210381 17.067799 -6.161022 -30.011509 -3.841062 -13.275677 -36.625829 -4.891955 3.162534 -6.614850 -3.783743 -6.814377 -1.981898 13.019757 9.320447 29.311096 -1.958092 10.039817 41.670223 -9.036239 -4.108007 13.829309 -2.193075 2.810397 0.210159 18.661598 
2.297948 0.602246 0.987566 -107.746833 2.429662 83.449820 0.449729 3.441829 9.796894 1.692009 -11.115141 -2.146464 2.075431 17.622174 -11.537016 0.000000 -0.000000 0.000000 0.369915 -1.061593 2.461102 -3.307242 13.412027 0.706958 3.216379 -13.084477 -6.690409 0.000000 -0.000000 0.000000 -6.515708 0.412743 4.389491 3.926556 -6.423918 -1.383397 3.442906 -3.026031 -9.820298 1.529463 -7.274937 -17.504334 10.781584 0.310667 17.032313 -6.624487 -30.202275 -3.712965 -13.846745 -36.190704 -4.501741 4.378869 -6.522966 -3.626844 -7.598748 -1.499095 13.804313 9.591448 29.237950 -1.768294 10.409725 41.566191 -8.694606 -4.195125 13.982007 -1.996185 3.300586 0.168908 18.868573 
2.298922 0.601568 0.988005 -108.386673 2.573553 83.593219 0.596131 3.606588 9.515454 1.571390 -10.517380 -2.033774 1.910618 17.438820 -11.434910 0.000000 -0.000000 0.000000 0.605315 -0.827618 2.025146 -3.324174 13.643378 0.776204 2.997432 -12.973621 -6.428521 0.000000 -0.000000 0.000000 -6.586810 0.606677 4.842480 3.914264 -6.128451 -1.780119 3.552444 -3.499860 -10.228865 2.058632 -6.935625 -19.145711 10.202040 0.340240 17.168981 -6.954240 -30.223288 -3.911854 -14.564080 -36.076318 -3.640703 5.296073 -6.478902 -3.478470 -7.589122 -1.496660 14.321316 9.985038 29.215454 -1.898554 11.335289 41.643738 -7.490071 -4.480384 14.202919 -1.693326 2.874257 0.077194 18.356311 
